<?xml version="1.0" encoding="UTF-8" standalone="no"?><!DOCTYPE svg PUBLIC "-//W3C//DTD SVG 1.1//EN" "http://www.w3.org/Graphics/SVG/1.1/DTD/svg11.dtd"><svg width="100%" height="100%" viewBox="0 0 1280 895" version="1.1" xmlns="http://www.w3.org/2000/svg" xmlns:xlink="http://www.w3.org/1999/xlink" xml:space="preserve" xmlns:serif="http://www.serif.com/" style="fill-rule:evenodd;clip-rule:evenodd;stroke-linejoin:round;stroke-miterlimit:2;"><path d="M554.989,451.66c0,22.787 -4.341,44.285 -13.021,64.494c-8.681,20.209 -20.549,37.774 -35.604,52.694c-15.055,14.919 -32.688,26.719 -52.897,35.4c-20.21,8.681 -41.843,13.021 -64.901,13.021c-20.616,0 -40.419,-3.594 -59.407,-10.783c-18.989,-7.189 -36.215,-17.7 -51.677,-31.535c-15.191,13.835 -32.213,24.346 -51.066,31.535c-18.853,7.189 -38.723,10.783 -59.611,10.783c-23.058,0 -44.623,-4.34 -64.697,-13.021c-20.074,-8.681 -37.639,-20.481 -52.694,-35.4c-15.055,-14.92 -26.923,-32.485 -35.604,-52.694c-8.68,-20.209 -13.021,-41.707 -13.021,-64.494l0,-277.506l111.084,0l0,277.506c0,7.596 1.425,14.716 4.273,21.362c2.848,6.647 6.782,12.479 11.8,17.497c5.018,5.019 10.851,8.952 17.497,11.8c6.646,2.849 13.767,4.273 21.362,4.273c7.595,0 14.784,-1.424 21.566,-4.273c6.781,-2.848 12.749,-6.781 17.903,-11.8c5.154,-5.018 9.156,-10.85 12.004,-17.497c2.848,-6.646 4.272,-13.766 4.272,-21.362l0,-277.506l110.678,0l0,277.506c0,7.596 1.492,14.716 4.475,21.362c2.984,6.647 6.986,12.479 12.004,17.497c5.018,5.019 10.851,8.952 17.497,11.8c6.646,2.849 13.767,4.273 21.362,4.273c7.596,0 14.784,-1.424 21.566,-4.273c6.782,-2.848 12.682,-6.781 17.7,-11.8c5.018,-5.018 9.02,-10.85 12.004,-17.497c2.984,-6.646 4.476,-13.766 4.476,-21.362l0,-277.506l110.677,0l0,277.506Z" style="fill:#443dbf;fill-rule:nonzero;"/><path d="M942.531,387.37c0,32.552 -5.832,62.866 -17.497,90.942c-11.664,28.076 -27.533,52.355 -47.607,72.835c-20.074,20.481 -43.606,36.622 -70.598,48.422c-26.991,11.8 -55.948,17.7 -86.873,17.7c-30.653,0 -59.475,-5.9 -86.466,-17.7c-26.992,-11.8 -50.592,-27.941 -70.801,-48.422c-20.21,-20.48 -36.147,-44.759 -47.811,-72.835c-11.665,-28.076 -17.497,-58.39 -17.497,-90.942c0,-33.095 5.832,-63.748 17.497,-91.96c11.664,-28.212 27.601,-52.558 47.811,-73.039c20.209,-20.48 43.809,-36.553 70.801,-48.217c26.991,-11.665 55.813,-17.497 86.466,-17.497c30.925,0 59.882,5.493 86.873,16.479c26.992,10.987 50.524,26.585 70.598,46.794c20.074,20.209 35.943,44.488 47.607,72.835c11.665,28.348 17.497,59.883 17.497,94.605Zm-111.898,0c0,-17.904 -2.916,-34.112 -8.748,-48.625c-5.832,-14.513 -13.767,-26.991 -23.804,-37.435c-10.037,-10.444 -21.769,-18.446 -35.197,-24.007c-13.428,-5.561 -27.737,-8.341 -42.928,-8.341c-15.191,0 -29.5,2.78 -42.928,8.341c-13.428,5.561 -25.092,13.563 -34.993,24.007c-9.902,10.444 -17.701,22.922 -23.397,37.435c-5.697,14.513 -8.545,30.721 -8.545,48.625c0,16.818 2.848,32.416 8.545,46.793c5.696,14.378 13.495,26.856 23.397,37.435c9.901,10.58 21.565,18.921 34.993,25.025c13.428,6.103 27.737,9.155 42.928,9.155c15.191,0 29.5,-2.848 42.928,-8.545c13.428,-5.697 25.16,-13.699 35.197,-24.007c10.037,-10.308 17.972,-22.787 23.804,-37.435c5.832,-14.648 8.748,-30.789 8.748,-48.421Z" style="fill:#443dbf;fill-rule:nonzero;"/><path d="M1000.89,609.131l-111.084,0l0,-609.131l111.084,0l0,192.464c13.292,-10.037 26.991,-17.157 41.097,-21.362c14.106,-4.205 28.483,-6.307 43.132,-6.307c26.855,0 52.083,5.086 75.683,15.259c23.601,10.172 44.149,24.143 61.646,41.911c17.497,17.768 31.331,38.519 41.504,62.255c10.172,23.736 15.259,49.032 15.259,75.887l0,249.024l-111.898,0l0,-249.024l0.814,0c0,-11.393 -2.171,-22.176 -6.511,-32.348c-4.34,-10.173 -10.308,-19.057 -17.903,-26.652c-7.596,-7.596 -16.412,-13.564 -26.449,-17.904c-10.037,-4.34 -20.752,-6.51 -32.145,-6.51c-11.665,0 -22.651,2.17 -32.959,6.51c-10.308,4.34 -19.26,10.308 -26.856,17.904c-7.595,7.595 -13.563,16.479 -17.903,26.652c-4.341,10.172 -6.511,20.955 -6.511,32.348l0,249.024Z" style="fill:#443dbf;fill-rule:nonzero;"/><path d="M46.204,847.563c0.688,0.229 1.375,0.458 2.063,0.458c1.833,0 4.125,-1.375 4.812,-3.438c0,-0.229 0.229,-0.458 0.229,-0.458l25.896,-61.875l26.125,62.104l0.229,0.229c0.459,1.834 2.521,3.209 4.355,3.438l1.145,0c0.917,0 1.834,-0.459 2.75,-1.146c0.917,-0.688 1.605,-1.604 2.063,-2.75l41.937,-99.917c1.146,-2.75 -0.229,-5.958 -2.979,-7.104c-2.521,-1.146 -5.958,0.229 -7.104,2.979l-37.125,88.459l-25.896,-61.646c-0.916,-2.063 -3.208,-3.438 -5.5,-3.438c-2.062,0 -4.354,1.375 -5.271,3.438l-25.895,61.646l-37.355,-88.459c-0.916,-2.75 -4.354,-4.125 -7.104,-2.979c-2.521,1.146 -3.896,4.354 -2.75,7.104l42.167,100.375c0.458,1.146 1.146,2.063 2.292,2.521c0.229,0.229 0.458,0.458 0.916,0.458Z" style="fill:#443dbf;fill-rule:nonzero;"/><path d="M179.121,791.875c0,30.479 23.833,56.146 53.167,56.146c29.562,0 53.166,-25.667 53.166,-56.146c0,-30.479 -23.604,-56.146 -53.166,-56.146c-29.334,0 -53.167,25.667 -53.167,56.146Zm11,0c0,-24.979 19.25,-45.375 42.167,-45.375c22.916,0 42.166,20.396 42.166,45.375c0,24.979 -19.25,45.146 -42.166,45.146c-22.917,0 -42.167,-20.167 -42.167,-45.146Z" style="fill:#443dbf;fill-rule:nonzero;"/><path d="M308.142,842.521c0,3.208 2.521,5.5 5.729,5.5c2.75,0 5.271,-2.292 5.271,-5.5l0,-49.271c0,-0.458 0,-0.917 0.458,-1.833c1.604,-4.584 5.958,-16.042 13.521,-26.125c7.792,-10.084 17.875,-18.334 32.542,-18.334c2.979,0 5.5,-2.521 5.5,-5.5c0,-3.208 -2.521,-5.5 -5.5,-5.5c-21.542,0 -36.438,14.209 -44.917,27.5c-0.688,0.917 -1.146,1.834 -1.604,2.75l0,-24.75c0,-3.208 -2.521,-5.5 -5.271,-5.5c-3.208,0 -5.729,2.292 -5.729,5.5l0,101.063Z" style="fill:#443dbf;fill-rule:nonzero;"/><path d="M395.454,842.521c0,2.979 2.521,5.5 5.5,5.5c3.209,0 5.729,-2.521 5.729,-5.5l0,-149.417c0,-2.979 -2.52,-5.5 -5.729,-5.5c-2.979,0 -5.5,2.521 -5.5,5.5l0,149.417Z" style="fill:#443dbf;fill-rule:nonzero;"/><path d="M525.85,842.521c0,2.979 2.521,5.5 5.729,5.5c2.979,0 5.5,-2.521 5.5,-5.5l0,-50.417l0,-2.292l0,-96.708c0,-2.979 -2.521,-5.5 -5.5,-5.5c-3.208,0 -5.729,2.521 -5.729,5.5l0,64.625c-9.854,-13.292 -25.437,-22 -43.083,-22c-30.25,0 -54.313,25.208 -54.313,56.375c0,30.708 24.063,55.917 54.313,55.917c17.646,0 33.229,-8.479 43.083,-21.771l0,16.271Zm-43.083,-5.729c-23.604,0 -43.084,-19.938 -43.084,-44.688c0,-24.979 19.48,-45.146 43.084,-45.146c23.146,0 42.166,19.25 43.083,43.313l0,3.666c-0.917,23.834 -19.937,42.855 -43.083,42.855Z" style="fill:#443dbf;fill-rule:nonzero;"/><path d="M654.871,842.521c0,2.979 2.521,5.5 5.5,5.5c3.208,0 5.729,-2.521 5.729,-5.5l0,-62.563c0,-25.896 -21.083,-44.229 -46.979,-44.229c-14.208,0 -27.042,6.417 -35.521,16.5l0,-59.125c0,-2.979 -2.521,-5.5 -5.729,-5.5c-2.979,0 -5.5,2.521 -5.5,5.5l0,149.417c0,0.687 0,1.146 0.229,1.833c0.229,0.688 0.458,1.146 0.917,1.833c1.146,1.146 2.75,1.834 4.354,1.834l1.146,0c0.229,0 0.458,-0.229 0.458,-0.229c1.604,-0.459 2.75,-1.375 3.438,-2.75c0.229,-0.229 0.229,-0.459 0.458,-0.917c0,-0.229 0.229,-0.458 0.229,-0.917l0,-0.687l0,-62.563c0,-19.708 16.042,-33 35.521,-33c19.708,0 35.75,13.292 35.75,33l0,62.563Z" style="fill:#443dbf;fill-rule:nonzero;"/><path d="M744.475,848.021c19.021,0 35.75,-10.084 45.375,-25.438c1.604,-2.75 0.688,-5.958 -1.833,-7.791c-2.292,-1.375 -5.729,-0.917 -7.334,1.833c-7.562,12.604 -21.312,20.396 -36.208,20.396c-23.146,0 -42.396,-18.563 -43.542,-43.083l92.125,0c2.98,0 5.5,-2.063 5.5,-5.042l0,-0.688l0,-0.229c-2.291,-29.333 -25.208,-52.25 -54.083,-52.25c-30.25,0 -54.542,25.209 -54.542,56.375c0,30.709 24.292,55.917 54.542,55.917Zm0,-101.292c20.625,0 38.5,15.354 42.167,36.438l-85.021,0c4.125,-21.313 21.771,-36.438 42.854,-36.438Z" style="fill:#443dbf;fill-rule:nonzero;"/><path d="M824.225,842.521c0,2.979 2.521,5.5 5.5,5.5c3.208,0 5.729,-2.521 5.729,-5.5l0,-149.417c0,-2.979 -2.521,-5.5 -5.729,-5.5c-2.979,0 -5.5,2.521 -5.5,5.5l0,149.417Z" style="fill:#443dbf;fill-rule:nonzero;"/><path d="M864.788,889.5c0,2.979 2.52,5.5 5.5,5.5c3.208,0 5.729,-2.521 5.729,-5.5l0,-64.167c9.625,13.292 25.208,22 42.625,22c30.25,0 54.312,-25.437 54.312,-55.916c0,-30.709 -24.062,-55.688 -54.312,-55.688c-17.417,0 -33,8.709 -42.625,21.771l0,-16.271c0,-2.979 -2.521,-5.5 -5.729,-5.5c-2.98,0 -5.5,2.521 -5.5,5.5l0,148.271Zm11.229,-99.917c0.916,-23.833 19.937,-42.625 42.625,-42.625c23.833,0 43.083,19.709 43.083,44.459c0,24.75 -19.25,44.687 -43.083,44.916c-23.146,-0.229 -42.625,-20.166 -42.625,-44.916l0,-1.834Z" style="fill:#443dbf;fill-rule:nonzero;"/><path d="M1045.37,848.021c19.021,0 35.75,-10.084 45.375,-25.438c1.604,-2.75 0.687,-5.958 -1.833,-7.791c-2.292,-1.375 -5.73,-0.917 -7.334,1.833c-7.562,12.604 -21.312,20.396 -36.208,20.396c-23.146,0 -42.396,-18.563 -43.542,-43.083l92.125,0c2.979,0 5.5,-2.063 5.5,-5.042l0,-0.688l0,-0.229c-2.291,-29.333 -25.208,-52.25 -54.083,-52.25c-30.25,0 -54.542,25.209 -54.542,56.375c0,30.709 24.292,55.917 54.542,55.917Zm0,-101.292c20.625,0 38.5,15.354 42.167,36.438l-85.021,0c4.125,-21.313 21.771,-36.438 42.854,-36.438Z" style="fill:#443dbf;fill-rule:nonzero;"/><path d="M1118.7,842.521c0,3.208 2.521,5.5 5.729,5.5c2.75,0 5.271,-2.292 5.271,-5.5l0,-49.271c0,-0.458 0,-0.917 0.459,-1.833c1.604,-4.584 5.958,-16.042 13.52,-26.125c7.792,-10.084 17.875,-18.334 32.542,-18.334c2.979,0 5.5,-2.521 5.5,-5.5c0,-3.208 -2.521,-5.5 -5.5,-5.5c-21.542,0 -36.437,14.209 -44.917,27.5c-0.687,0.917 -1.145,1.834 -1.604,2.75l0,-24.75c0,-3.208 -2.521,-5.5 -5.271,-5.5c-3.208,0 -5.729,2.292 -5.729,5.5l0,101.063Z" style="fill:#443dbf;fill-rule:nonzero;"/><path d="M1197.31,831.979c9.167,7.333 23.375,15.813 41.48,16.042c11,0 20.166,-3.209 27.958,-8.938c7.562,-5.729 12.833,-13.291 12.833,-22.687c0,-9.396 -5.271,-18.104 -12.604,-22.917c-7.792,-4.354 -16.5,-7.562 -27.271,-9.167l-0.458,0c-10.313,-1.604 -17.875,-4.354 -22.917,-7.791c-4.354,-3.438 -6.416,-6.646 -6.416,-11.229c0,-4.584 2.52,-9.167 7.104,-12.834c4.812,-3.895 12.146,-6.416 21.312,-6.416c11,0 19.25,5.729 27.5,11.229c2.521,1.604 5.959,0.917 7.563,-1.604c1.604,-2.521 0.916,-5.959 -1.604,-7.792c-8.709,-5.5 -19.021,-12.146 -33.459,-12.146c-11.458,0 -20.854,2.979 -27.5,7.563c-7.104,5.271 -12.146,13.062 -12.146,22c0,8.708 5.042,16.041 12.146,20.166c6.417,4.584 15.354,6.875 25.438,8.709l0.458,0.229c11,1.833 19.021,4.583 23.833,8.25c5.73,4.812 7.792,8.479 8.021,13.75c0,5.042 -2.979,10.083 -8.479,13.75c-5.042,4.125 -12.604,6.875 -21.312,6.875c-14.209,0 -26.584,-7.333 -34.375,-13.063c-2.521,-2.062 -5.959,-1.604 -7.792,0.688c-1.833,2.292 -1.604,5.271 0.687,7.333Z" style="fill:#443dbf;fill-rule:nonzero;"/></svg>