<?xml version="1.0" encoding="UTF-8" standalone="no"?>
<!DOCTYPE svg PUBLIC "-//W3C//DTD SVG 1.1//EN" "http://www.w3.org/Graphics/SVG/1.1/DTD/svg11.dtd">
<svg width="100%" height="100%" viewBox="0 0 1280 895" version="1.1" xmlns="http://www.w3.org/2000/svg" xmlns:xlink="http://www.w3.org/1999/xlink" xml:space="preserve" xmlns:serif="http://www.serif.com/" style="fill-rule:evenodd;clip-rule:evenodd;stroke-linejoin:round;stroke-miterlimit:2;">
    <g transform="matrix(1,0,0,1,-153.714,190.217)">
        <g transform="matrix(833.333,0,0,833.333,116.254,418.914)">
            <path d="M0.711,-0.189C0.711,-0.162 0.706,-0.136 0.695,-0.112C0.685,-0.087 0.671,-0.066 0.653,-0.048C0.635,-0.03 0.613,-0.016 0.589,-0.006C0.565,0.005 0.539,0.01 0.511,0.01C0.486,0.01 0.463,0.005 0.44,-0.003C0.417,-0.012 0.396,-0.024 0.378,-0.041C0.36,-0.024 0.339,-0.012 0.317,-0.003C0.294,0.005 0.27,0.01 0.245,0.01C0.217,0.01 0.192,0.005 0.167,-0.006C0.143,-0.016 0.122,-0.03 0.104,-0.048C0.086,-0.066 0.072,-0.087 0.062,-0.112C0.051,-0.136 0.046,-0.162 0.046,-0.189L0.046,-0.522L0.179,-0.522L0.179,-0.189C0.179,-0.18 0.181,-0.171 0.184,-0.163C0.188,-0.155 0.192,-0.148 0.198,-0.142C0.205,-0.136 0.212,-0.132 0.219,-0.128C0.227,-0.125 0.236,-0.123 0.245,-0.123C0.254,-0.123 0.263,-0.125 0.271,-0.128C0.279,-0.132 0.286,-0.136 0.292,-0.142C0.299,-0.148 0.303,-0.155 0.307,-0.163C0.31,-0.171 0.312,-0.18 0.312,-0.189L0.312,-0.522L0.445,-0.522L0.445,-0.189C0.445,-0.18 0.447,-0.171 0.45,-0.163C0.454,-0.155 0.459,-0.148 0.465,-0.142C0.471,-0.136 0.478,-0.132 0.486,-0.128C0.494,-0.125 0.502,-0.123 0.511,-0.123C0.52,-0.123 0.529,-0.125 0.537,-0.128C0.545,-0.132 0.552,-0.136 0.558,-0.142C0.564,-0.148 0.569,-0.155 0.573,-0.163C0.576,-0.171 0.578,-0.18 0.578,-0.189L0.578,-0.522L0.711,-0.522L0.711,-0.189Z" style="fill:rgb(68,61,191);fill-rule:nonzero;"/>
        </g>
        <g transform="matrix(833.333,0,0,833.333,632.784,418.914)">
            <path d="M0.556,-0.266C0.556,-0.227 0.549,-0.191 0.535,-0.157C0.521,-0.123 0.502,-0.094 0.478,-0.07C0.454,-0.045 0.426,-0.026 0.393,-0.011C0.361,0.003 0.326,0.01 0.289,0.01C0.252,0.01 0.218,0.003 0.185,-0.011C0.153,-0.026 0.125,-0.045 0.1,-0.07C0.076,-0.094 0.057,-0.123 0.043,-0.157C0.029,-0.191 0.022,-0.227 0.022,-0.266C0.022,-0.306 0.029,-0.343 0.043,-0.376C0.057,-0.41 0.076,-0.44 0.1,-0.464C0.125,-0.489 0.153,-0.508 0.185,-0.522C0.218,-0.536 0.252,-0.543 0.289,-0.543C0.326,-0.543 0.361,-0.536 0.393,-0.523C0.426,-0.51 0.454,-0.491 0.478,-0.467C0.502,-0.443 0.521,-0.414 0.535,-0.38C0.549,-0.346 0.556,-0.308 0.556,-0.266ZM0.422,-0.266C0.422,-0.288 0.418,-0.307 0.411,-0.324C0.404,-0.342 0.395,-0.357 0.383,-0.369C0.371,-0.382 0.357,-0.392 0.341,-0.398C0.324,-0.405 0.307,-0.408 0.289,-0.408C0.271,-0.408 0.254,-0.405 0.238,-0.398C0.221,-0.392 0.207,-0.382 0.196,-0.369C0.184,-0.357 0.174,-0.342 0.167,-0.324C0.161,-0.307 0.157,-0.288 0.157,-0.266C0.157,-0.246 0.161,-0.227 0.167,-0.21C0.174,-0.193 0.184,-0.178 0.196,-0.165C0.207,-0.152 0.221,-0.142 0.238,-0.135C0.254,-0.128 0.271,-0.124 0.289,-0.124C0.307,-0.124 0.324,-0.127 0.341,-0.134C0.357,-0.141 0.371,-0.151 0.383,-0.163C0.395,-0.175 0.404,-0.19 0.411,-0.208C0.418,-0.226 0.422,-0.245 0.422,-0.266Z" style="fill:rgb(68,61,191);fill-rule:nonzero;"/>
        </g>
        <g transform="matrix(833.333,0,0,833.333,1001.2,418.914)">
            <path d="M0.184,0L0.051,0L0.051,-0.731L0.184,-0.731L0.184,-0.5C0.2,-0.512 0.216,-0.521 0.233,-0.526C0.25,-0.531 0.268,-0.533 0.285,-0.533C0.317,-0.533 0.348,-0.527 0.376,-0.515C0.404,-0.503 0.429,-0.486 0.45,-0.465C0.471,-0.443 0.488,-0.418 0.5,-0.39C0.512,-0.361 0.518,-0.331 0.518,-0.299L0.518,0L0.384,0L0.384,-0.299L0.385,-0.299C0.385,-0.313 0.382,-0.325 0.377,-0.338C0.372,-0.35 0.365,-0.361 0.355,-0.37C0.346,-0.379 0.336,-0.386 0.324,-0.391C0.312,-0.396 0.299,-0.399 0.285,-0.399C0.271,-0.399 0.258,-0.396 0.246,-0.391C0.233,-0.386 0.222,-0.379 0.213,-0.37C0.204,-0.361 0.197,-0.35 0.192,-0.338C0.187,-0.325 0.184,-0.313 0.184,-0.299L0.184,0Z" style="fill:rgb(68,61,191);fill-rule:nonzero;"/>
        </g>
    </g>
    <g transform="matrix(1,0,0,1,-141.525,-97.8359)">
        <g transform="matrix(212.5,0,0,212.5,136.8,946.086)">
            <path d="M0.722,-0.55C0.695,-0.347 0.645,-0.164 0.57,0L0.508,0C0.473,-0.076 0.446,-0.145 0.426,-0.208C0.405,-0.271 0.389,-0.336 0.378,-0.404C0.366,-0.335 0.35,-0.269 0.329,-0.206C0.308,-0.142 0.281,-0.074 0.246,0L0.182,0C0.147,-0.075 0.117,-0.157 0.094,-0.244C0.07,-0.331 0.05,-0.433 0.033,-0.55L0.103,-0.55C0.114,-0.453 0.129,-0.368 0.147,-0.295C0.164,-0.222 0.187,-0.154 0.216,-0.091C0.28,-0.222 0.323,-0.375 0.346,-0.55L0.412,-0.55C0.436,-0.369 0.479,-0.216 0.541,-0.089C0.599,-0.228 0.633,-0.381 0.644,-0.55L0.722,-0.55Z" style="fill:rgb(68,61,191);fill-rule:nonzero;"/>
        </g>
        <g transform="matrix(212.5,0,0,212.5,298.3,946.086)">
            <path d="M0.274,0.01C0.197,0.01 0.138,-0.014 0.099,-0.062C0.06,-0.11 0.04,-0.181 0.04,-0.276C0.04,-0.465 0.118,-0.56 0.274,-0.56C0.43,-0.56 0.508,-0.465 0.508,-0.276C0.508,-0.181 0.488,-0.11 0.449,-0.062C0.41,-0.014 0.351,0.01 0.274,0.01ZM0.274,-0.046C0.331,-0.046 0.372,-0.065 0.399,-0.102C0.425,-0.138 0.438,-0.197 0.438,-0.276C0.438,-0.355 0.425,-0.412 0.399,-0.449C0.372,-0.486 0.331,-0.504 0.274,-0.504C0.217,-0.504 0.176,-0.486 0.15,-0.449C0.123,-0.412 0.11,-0.355 0.11,-0.276C0.11,-0.197 0.123,-0.138 0.15,-0.102C0.176,-0.065 0.217,-0.046 0.274,-0.046Z" style="fill:rgb(68,61,191);fill-rule:nonzero;"/>
        </g>
        <g transform="matrix(212.5,0,0,212.5,414.75,946.086)">
            <path d="M0.306,-0.557C0.329,-0.557 0.347,-0.553 0.36,-0.546C0.372,-0.538 0.378,-0.526 0.378,-0.511C0.378,-0.5 0.374,-0.491 0.367,-0.482C0.351,-0.491 0.329,-0.495 0.301,-0.495C0.256,-0.495 0.221,-0.477 0.194,-0.442C0.167,-0.407 0.153,-0.36 0.153,-0.303L0.153,0L0.085,0L0.085,-0.55L0.153,-0.55L0.153,-0.451C0.168,-0.482 0.19,-0.507 0.218,-0.527C0.246,-0.547 0.275,-0.557 0.306,-0.557Z" style="fill:rgb(68,61,191);fill-rule:nonzero;"/>
        </g>
        <g transform="matrix(212.5,0,0,212.5,499.75,946.086)">
            <rect x="0.1" y="-0.791" width="0.068" height="0.791" style="fill:rgb(68,61,191);fill-rule:nonzero;"/>
        </g>
        <g transform="matrix(212.5,0,0,212.5,556.7,946.086)">
            <path d="M0.507,-0.128C0.507,-0.107 0.508,-0.085 0.511,-0.063C0.514,-0.041 0.517,-0.023 0.521,-0.008C0.504,0 0.489,0.004 0.475,0.004C0.457,0.004 0.446,-0.019 0.441,-0.064C0.419,-0.037 0.395,-0.018 0.369,-0.007C0.343,0.004 0.311,0.01 0.273,0.01C0.2,0.01 0.143,-0.015 0.102,-0.066C0.061,-0.116 0.04,-0.185 0.04,-0.273C0.04,-0.364 0.062,-0.434 0.107,-0.485C0.151,-0.535 0.213,-0.56 0.292,-0.56C0.317,-0.56 0.343,-0.556 0.371,-0.547C0.398,-0.538 0.421,-0.526 0.439,-0.513L0.439,-0.791L0.507,-0.791L0.507,-0.128ZM0.278,-0.046C0.312,-0.046 0.342,-0.053 0.368,-0.067C0.394,-0.081 0.418,-0.103 0.439,-0.132L0.439,-0.447C0.423,-0.464 0.401,-0.478 0.374,-0.489C0.346,-0.5 0.319,-0.506 0.292,-0.506C0.233,-0.506 0.188,-0.486 0.157,-0.446C0.126,-0.406 0.11,-0.348 0.11,-0.273C0.11,-0.2 0.124,-0.143 0.153,-0.105C0.182,-0.066 0.223,-0.046 0.278,-0.046Z" style="fill:rgb(68,61,191);fill-rule:nonzero;"/>
        </g>
        <g transform="matrix(212.5,0,0,212.5,683.775,946.086)">
            <path d="M0.353,-0.56C0.41,-0.56 0.456,-0.544 0.489,-0.511C0.522,-0.478 0.539,-0.433 0.539,-0.376L0.539,0L0.471,0L0.471,-0.369C0.471,-0.412 0.46,-0.446 0.439,-0.469C0.418,-0.492 0.387,-0.504 0.347,-0.504C0.316,-0.504 0.284,-0.497 0.25,-0.484C0.216,-0.47 0.186,-0.452 0.159,-0.429L0.159,0L0.091,0L0.091,-0.791L0.159,-0.791L0.159,-0.494C0.188,-0.515 0.22,-0.532 0.253,-0.543C0.286,-0.554 0.32,-0.56 0.353,-0.56Z" style="fill:rgb(68,61,191);fill-rule:nonzero;"/>
        </g>
        <g transform="matrix(212.5,0,0,212.5,817.65,946.086)">
            <path d="M0.52,-0.314C0.52,-0.299 0.519,-0.283 0.518,-0.268L0.12,-0.268C0.121,-0.199 0.137,-0.145 0.167,-0.106C0.196,-0.067 0.237,-0.048 0.29,-0.048C0.326,-0.048 0.357,-0.055 0.382,-0.069C0.407,-0.083 0.427,-0.105 0.444,-0.136C0.449,-0.145 0.456,-0.149 0.465,-0.149C0.476,-0.149 0.49,-0.143 0.509,-0.13C0.494,-0.087 0.467,-0.053 0.428,-0.028C0.389,-0.003 0.343,0.01 0.29,0.01C0.241,0.01 0.199,-0.002 0.163,-0.025C0.126,-0.048 0.098,-0.081 0.079,-0.124C0.06,-0.167 0.05,-0.217 0.05,-0.276C0.05,-0.365 0.072,-0.434 0.116,-0.485C0.16,-0.535 0.22,-0.56 0.297,-0.56C0.367,-0.56 0.422,-0.538 0.461,-0.495C0.5,-0.452 0.52,-0.391 0.52,-0.314ZM0.45,-0.322C0.45,-0.442 0.398,-0.502 0.294,-0.502C0.243,-0.502 0.203,-0.487 0.174,-0.456C0.145,-0.425 0.127,-0.381 0.122,-0.322L0.45,-0.322Z" style="fill:rgb(68,61,191);fill-rule:nonzero;"/>
        </g>
        <g transform="matrix(212.5,0,0,212.5,936.65,946.086)">
            <rect x="0.1" y="-0.791" width="0.068" height="0.791" style="fill:rgb(68,61,191);fill-rule:nonzero;"/>
        </g>
        <g transform="matrix(212.5,0,0,212.5,993.6,946.086)">
            <path d="M0.328,-0.56C0.403,-0.56 0.46,-0.536 0.499,-0.487C0.538,-0.438 0.558,-0.367 0.558,-0.276C0.558,-0.218 0.548,-0.167 0.528,-0.125C0.507,-0.082 0.478,-0.048 0.44,-0.025C0.401,-0.002 0.356,0.01 0.305,0.01C0.28,0.01 0.254,0.008 0.229,0.003C0.203,-0.003 0.18,-0.009 0.16,-0.017L0.16,0.22L0.092,0.22L0.092,-0.363C0.092,-0.462 0.088,-0.52 0.08,-0.539C0.101,-0.549 0.118,-0.554 0.131,-0.554C0.15,-0.554 0.16,-0.535 0.16,-0.496L0.16,-0.492C0.182,-0.514 0.208,-0.531 0.237,-0.543C0.266,-0.554 0.296,-0.56 0.328,-0.56ZM0.305,-0.046C0.362,-0.046 0.407,-0.066 0.439,-0.106C0.47,-0.146 0.486,-0.203 0.486,-0.276C0.486,-0.428 0.433,-0.504 0.328,-0.504C0.297,-0.504 0.268,-0.497 0.239,-0.483C0.21,-0.469 0.183,-0.449 0.16,-0.423L0.16,-0.076C0.201,-0.056 0.25,-0.046 0.305,-0.046Z" style="fill:rgb(68,61,191);fill-rule:nonzero;"/>
        </g>
        <g transform="matrix(212.5,0,0,212.5,1120.67,946.086)">
            <path d="M0.52,-0.314C0.52,-0.299 0.519,-0.283 0.518,-0.268L0.12,-0.268C0.121,-0.199 0.137,-0.145 0.167,-0.106C0.196,-0.067 0.237,-0.048 0.29,-0.048C0.326,-0.048 0.357,-0.055 0.382,-0.069C0.407,-0.083 0.427,-0.105 0.444,-0.136C0.449,-0.145 0.456,-0.149 0.465,-0.149C0.476,-0.149 0.49,-0.143 0.509,-0.13C0.494,-0.087 0.467,-0.053 0.428,-0.028C0.389,-0.003 0.343,0.01 0.29,0.01C0.241,0.01 0.199,-0.002 0.163,-0.025C0.126,-0.048 0.098,-0.081 0.079,-0.124C0.06,-0.167 0.05,-0.217 0.05,-0.276C0.05,-0.365 0.072,-0.434 0.116,-0.485C0.16,-0.535 0.22,-0.56 0.297,-0.56C0.367,-0.56 0.422,-0.538 0.461,-0.495C0.5,-0.452 0.52,-0.391 0.52,-0.314ZM0.45,-0.322C0.45,-0.442 0.398,-0.502 0.294,-0.502C0.243,-0.502 0.203,-0.487 0.174,-0.456C0.145,-0.425 0.127,-0.381 0.122,-0.322L0.45,-0.322Z" style="fill:rgb(68,61,191);fill-rule:nonzero;"/>
        </g>
        <g transform="matrix(212.5,0,0,212.5,1239.67,946.086)">
            <path d="M0.306,-0.557C0.329,-0.557 0.347,-0.553 0.36,-0.546C0.372,-0.538 0.378,-0.526 0.378,-0.511C0.378,-0.5 0.374,-0.491 0.367,-0.482C0.351,-0.491 0.329,-0.495 0.301,-0.495C0.256,-0.495 0.221,-0.477 0.194,-0.442C0.167,-0.407 0.153,-0.36 0.153,-0.303L0.153,0L0.085,0L0.085,-0.55L0.153,-0.55L0.153,-0.451C0.168,-0.482 0.19,-0.507 0.218,-0.527C0.246,-0.547 0.275,-0.557 0.306,-0.557Z" style="fill:rgb(68,61,191);fill-rule:nonzero;"/>
        </g>
        <g transform="matrix(212.5,0,0,212.5,1324.67,946.086)">
            <path d="M0.245,0.01C0.215,0.01 0.184,0.005 0.152,-0.005C0.12,-0.015 0.093,-0.028 0.072,-0.045C0.051,-0.062 0.04,-0.079 0.04,-0.098C0.04,-0.107 0.043,-0.115 0.049,-0.122C0.054,-0.129 0.061,-0.133 0.07,-0.136C0.094,-0.105 0.12,-0.082 0.148,-0.068C0.176,-0.053 0.21,-0.046 0.249,-0.046C0.291,-0.046 0.323,-0.056 0.345,-0.075C0.366,-0.094 0.377,-0.12 0.377,-0.152C0.377,-0.173 0.371,-0.191 0.358,-0.204C0.345,-0.217 0.329,-0.227 0.31,-0.234C0.291,-0.241 0.264,-0.248 0.231,-0.257C0.192,-0.267 0.161,-0.277 0.138,-0.286C0.114,-0.295 0.094,-0.31 0.078,-0.329C0.061,-0.347 0.053,-0.373 0.053,-0.405C0.053,-0.439 0.062,-0.468 0.08,-0.491C0.098,-0.514 0.121,-0.532 0.149,-0.543C0.177,-0.554 0.206,-0.56 0.235,-0.56C0.277,-0.56 0.315,-0.552 0.35,-0.535C0.384,-0.518 0.411,-0.494 0.43,-0.462C0.414,-0.445 0.4,-0.437 0.389,-0.437C0.38,-0.437 0.372,-0.442 0.364,-0.451C0.348,-0.47 0.33,-0.484 0.309,-0.493C0.288,-0.501 0.262,-0.506 0.232,-0.506C0.198,-0.506 0.171,-0.498 0.151,-0.482C0.131,-0.466 0.121,-0.441 0.121,-0.408C0.121,-0.389 0.127,-0.373 0.139,-0.361C0.151,-0.349 0.166,-0.34 0.184,-0.334C0.202,-0.327 0.227,-0.32 0.258,-0.312C0.298,-0.303 0.331,-0.293 0.356,-0.283C0.381,-0.273 0.402,-0.258 0.419,-0.237C0.436,-0.216 0.445,-0.187 0.445,-0.152C0.445,-0.103 0.427,-0.063 0.391,-0.034C0.354,-0.005 0.306,0.01 0.245,0.01Z" style="fill:rgb(68,61,191);fill-rule:nonzero;"/>
        </g>
    </g>
</svg>
