<?xml version="1.0" encoding="iso-8859-1"?>
<!-- Generator: Adobe Illustrator 19.0.0, SVG Export Plug-In . SVG Version: 6.00 Build 0)  -->
<svg version="1.1" id="Capa_1" xmlns="http://www.w3.org/2000/svg" xmlns:xlink="http://www.w3.org/1999/xlink" x="0px" y="0px"
	 viewBox="0 0 512 512" style="enable-background:new 0 0 512 512;" xml:space="preserve">
<g>
	<g>
		<g>
			<path d="M31.153,288C31.047,181.961,116.922,95.914,222.961,95.808c77.627-0.078,147.664,46.596,177.472,118.272l29.6-12.32
				c-30.405-72.756-96.825-124.166-174.88-135.36V32h16c17.673,0,32-14.327,32-32l-128,0.96c-0.04-0.319-0.04-0.641,0-0.96h-32
				c0,17.673,14.327,32,32,32h16v34.56C68.851,85.186-15.194,199.43,3.431,321.732C19.998,430.513,113.121,511.153,223.153,512v-32
				C117.114,480,31.153,394.039,31.153,288z"/>
			<path d="M239.153,176h-32v112c-0.025,4.253,1.645,8.34,4.64,11.36l16,16l22.56-22.56l-11.2-11.36V176z"/>
			<path d="M383.153,256c-70.692,0-128,57.308-128,128s57.308,128,128,128s128-57.308,128-128S453.845,256,383.153,256z
				 M383.153,480c-53.019,0-96-42.981-96-96s42.981-96,96-96s96,42.981,96,96S436.172,480,383.153,480z"/>
			<path d="M367.153,393.44l-20.64-20.64l-22.56,22.56l32,32c6.241,6.204,16.319,6.204,22.56,0l64-64l-22.56-22.56L367.153,393.44z"
				/>
		</g>
	</g>
</g>
<g>
</g>
<g>
</g>
<g>
</g>
<g>
</g>
<g>
</g>
<g>
</g>
<g>
</g>
<g>
</g>
<g>
</g>
<g>
</g>
<g>
</g>
<g>
</g>
<g>
</g>
<g>
</g>
<g>
</g>
</svg>
