<svg height="496pt" viewBox="-15 0 495 496" width="496pt" xmlns="http://www.w3.org/2000/svg"><path d="m464.5 232c0-127.921875-104.070312-232-232-232s-232 104.078125-232 232c0 93.921875 58 179.585938 144.710938 214.863281l-.710938 17.136719c0 17.648438 14.351562 32 32 32s32-14.351562 31.992188-32.335938l-.039063-1.039062c7.976563.816406 16.015625 1.375 24.046875 1.375 13.488281 0 26.9375-1.222656 40.144531-3.527344l-.144531 3.527344c0 17.648438 14.351562 32 32 32s32-14.351562 31.992188-32.335938l-.992188-23.847656c78.464844-38.984375 129-120.046875 129-207.816406zm-192 0h64c0 17.648438-14.351562 32-32 32s-32-14.351562-32-32zm80 0v-112h-16v96h-24v-96h-16v96h-24v-96h-16v112c0 17.695312 9.648438 33.144531 23.9375 41.464844l-5.035156 120.949218c-22.582032 5.9375-46.644532 7.082032-69.644532 3.410157l-5.160156-123.753907c23.367188-11.925781 39.902344-40.613281 39.902344-74.070312 0-44.113281-28.710938-80-64-80s-64 35.886719-64 80c0 33.457031 16.535156 62.144531 39.902344 74.0625l-4.292969 103.160156c-51.777344-30.070312-83.609375-84.863281-83.609375-145.222656 0-92.632812 75.359375-168 168-168s168 75.367188 168 168c0 53.609375-25.257812 103.351562-68.03125 135.023438l-3.898438-93.558594c14.28125-8.320313 23.929688-23.769532 23.929688-41.464844zm-224-32c0-35.289062 21.527344-64 48-64s48 28.710938 48 64-21.527344 64-48 64-48-28.710938-48-64zm48 280c-8.824219 0-16-7.175781-16.007812-15.664062l7.710937-185.089844c2.722656.449218 5.480469.753906 8.296875.753906s5.574219-.304688 8.296875-.753906l7.703125 184.753906c0 8.824219-7.175781 16-16 16zm31.273438-33.59375-1.351563-32.429688c8.613281 1.222657 17.324219 2.023438 26.078125 2.023438 14.273438 0 28.414062-1.734375 42.207031-4.96875l-1.367187 32.9375c-21.488282 4.101562-43.792969 4.917969-65.566406 2.4375zm96.726562 33.59375c-8.824219 0-16-7.175781-16.007812-15.664062l7.710937-185.105469c2.703125.472656 5.464844.769531 8.296875.769531s5.59375-.296875 8.296875-.769531l7.703125 184.769531c0 8.824219-7.175781 16-16 16zm30.265625-57.824219-1.511719-36.199219c52.125-34.183593 83.246094-91.695312 83.246094-153.976562 0-101.464844-82.542969-184-184-184s-184 82.535156-184 184c0 68.902344 37.855469 131.214844 98.871094 163.113281l-1.4375 34.671875c-77.785156-34.144531-129.433594-112.28125-129.433594-197.785156 0-119.105469 96.894531-216 216-216s216 96.894531 216 216c0 79.3125-44.335938 152.726562-113.734375 190.175781zm0 0"/></svg>