<?xml version="1.0" encoding="UTF-8" standalone="no"?><!DOCTYPE svg PUBLIC "-//W3C//DTD SVG 1.1//EN" "http://www.w3.org/Graphics/SVG/1.1/DTD/svg11.dtd"><svg width="100%" height="100%" viewBox="0 0 478 478" version="1.1" xmlns="http://www.w3.org/2000/svg" xmlns:xlink="http://www.w3.org/1999/xlink" xml:space="preserve" xmlns:serif="http://www.serif.com/" style="fill-rule:evenodd;clip-rule:evenodd;stroke-linejoin:round;stroke-miterlimit:2;"><path d="M438.482,58.61c-24.7,-26.549 -59.311,-41.655 -95.573,-41.711c-36.291,0.042 -70.938,15.14 -95.676,41.694l-8.431,8.909l-8.431,-8.909c-49.087,-52.831 -131.708,-55.865 -184.539,-6.778c-2.341,2.176 -4.602,4.436 -6.778,6.778c-52.072,56.166 -52.072,142.968 0,199.134l187.358,197.581c6.482,6.843 17.284,7.136 24.127,0.654c0.224,-0.212 0.442,-0.43 0.654,-0.654l187.29,-197.581c52.068,-56.16 52.068,-142.957 -0.001,-199.117Z" style="fill:#443dbf;fill-rule:nonzero;"/></svg>