<?xml version="1.0" encoding="iso-8859-1"?>
<!-- Generator: Adobe Illustrator 19.0.0, SVG Export Plug-In . SVG Version: 6.00 Build 0)  -->
<svg version="1.1" id="Capa_1" xmlns="http://www.w3.org/2000/svg" xmlns:xlink="http://www.w3.org/1999/xlink" x="0px" y="0px"
	 viewBox="0 0 512.001 512.001" style="enable-background:new 0 0 512.001 512.001;" xml:space="preserve">
<g>
	<g>
		<path d="M460.801,247.467h25.6c14.132-0.015,25.585-11.468,25.6-25.6c-0.07-14.109-11.491-25.53-25.6-25.6h-53.237
			c7.531-55.455-5.409-104.239-28.975-132.292C369.101,22.125,318.151,0,256.851,0c-0.173,0-0.341,0.011-0.514,0.011L256.001,0
			c-0.543,0-1.072,0.048-1.613,0.056c-60.189,0.59-110.258,22.635-144.867,63.91c-37.528,44.672-48.202,138.009-1.689,217.633
			H59.734c-14.132,0.015-25.585,11.468-25.6,25.6c0.07,14.109,11.491,25.53,25.6,25.6h17.067c4.713,0,8.533,3.821,8.533,8.533
			s-3.82,8.533-8.533,8.533h-51.2c-14.132,0.015-25.585,11.468-25.6,25.6c-0.05,6.756,2.639,13.244,7.454,17.983
			c4.758,4.905,11.312,7.656,18.146,7.617h164.128l7.4,12.333l16.205,40.513V486.4c0.015,14.132,11.468,25.585,25.6,25.6h34.133
			c14.132-0.015,25.585-11.468,25.6-25.6v-32.487l16.205-40.513l25.245-42.075c0.25-0.456,0.456-0.933,0.617-1.427l2.458-2.573
			c16.023-15.701,30.412-32.987,42.947-51.592h83.195c14.132-0.015,25.585-11.468,25.6-25.6c-0.07-14.109-11.491-25.53-25.6-25.6
			h-8.533c-4.713,0-8.533-3.82-8.533-8.533S456.088,247.467,460.801,247.467z M334.722,70.725
			c20.521,38.1,20.229,115.917-0.763,193.775c-9.299,33.173-23.4,64.808-41.855,93.9H279.98
			c6.062-30.088,10.491-60.483,13.267-91.05c7.221-80.367,7.179-161.617-0.1-202.183c-2.299-15.173-6.481-30.001-12.45-44.139
			C304.492,29.922,323.876,47.754,334.722,70.725z M255.698,17.12c0.167-0.001,0.325-0.022,0.492-0.022
			c1.469,0.295,11.71,4.049,20.157,51.086c7.042,39.208,7,118.633-0.104,197.683c-2.827,31.074-7.381,61.966-13.642,92.534h-13.2
			c-6.264-30.584-10.819-61.493-13.646-92.583c-7.1-79-7.142-158.425-0.1-197.633C242.967,27.459,252.32,17.652,255.698,17.12z
			 M231.304,21.028c-5.968,14.138-10.15,28.966-12.449,44.139c-7.279,40.567-7.321,121.817-0.104,202.133
			c2.775,30.584,7.205,60.995,13.271,91.1h-12.124c-18.479-29.135-32.593-60.818-41.893-94.042
			c-20.954-77.717-21.246-155.533-0.725-193.633C188.125,47.754,207.509,29.922,231.304,21.028z M25.601,384
			c-2.298,0.005-4.496-0.938-6.075-2.608c-1.591-1.559-2.479-3.698-2.458-5.925c0.005-4.711,3.822-8.529,8.533-8.533h51.2
			c14.138,0,25.6-11.462,25.6-25.6c0-14.138-11.462-25.6-25.6-25.6H59.734c-2.298,0.005-4.496-0.938-6.075-2.608
			c-1.591-1.559-2.479-3.698-2.458-5.925c0.005-4.711,3.822-8.529,8.533-8.533h58.217c24.162,40.193,30.742,48.584,54.41,73.454
			l7.128,11.88L25.601,384z M182.866,358.4c-23.82-25.114-28.705-32.202-59.477-83.9c-43.729-73.45-34.746-159.142-0.796-199.559
			c16.967-20.169,38.784-35.692,63.399-45.112c-9.429,9.75-17.421,20.792-23.737,32.795c-22.8,42.333-23.083,123.258-0.763,206.042
			c8.651,31.548,21.629,61.746,38.564,89.733H182.866z M217.406,418.134h30.061v25.6h-19.822L217.406,418.134z M281.601,486.4
			c-0.005,4.711-3.823,8.529-8.533,8.533h-34.133c-4.711-0.005-8.529-3.822-8.533-8.533v-25.6h51.2V486.4z M284.356,443.734h-19.822
			v-25.6h30.062L284.356,443.734z M302.367,401.067h-92.733l-15.363-25.6H317.73L302.367,401.067z M330.859,355.534l-2.739,2.867
			h-16.176c16.914-27.944,29.879-58.093,38.527-89.591c22.358-82.925,22.075-163.85-0.725-206.183
			c-6.542-12.438-14.9-23.833-24.799-33.808c25.726,9.298,48.549,25.209,66.17,46.133c30.938,36.825,41.092,119.425-1.029,199.958
			C375.135,304.994,355.097,332.27,330.859,355.534z M460.801,281.6h8.533c2.298-0.005,4.496,0.938,6.075,2.608
			c1.591,1.559,2.479,3.698,2.458,5.925c-0.005,4.711-3.822,8.529-8.533,8.533h-72.778c2.788-4.871,5.658-10.108,8.657-15.842
			c11.512-21.896,19.933-45.283,25.023-69.492h56.165c2.298-0.005,4.496,0.938,6.075,2.608c1.591,1.559,2.479,3.698,2.458,5.925
			c-0.005,4.711-3.822,8.529-8.533,8.533h-25.6c-14.138,0-25.6,11.461-25.6,25.6S446.662,281.6,460.801,281.6z"/>
	</g>
</g>
<g>
</g>
<g>
</g>
<g>
</g>
<g>
</g>
<g>
</g>
<g>
</g>
<g>
</g>
<g>
</g>
<g>
</g>
<g>
</g>
<g>
</g>
<g>
</g>
<g>
</g>
<g>
</g>
<g>
</g>
</svg>
