<?xml version="1.0" encoding="iso-8859-1"?>
<!-- Generator: Adobe Illustrator 19.0.0, SVG Export Plug-In . SVG Version: 6.00 Build 0)  -->
<svg version="1.1" id="Layer_1" xmlns="http://www.w3.org/2000/svg" xmlns:xlink="http://www.w3.org/1999/xlink" x="0px" y="0px"
	 viewBox="0 0 512 512" style="enable-background:new 0 0 512 512;" xml:space="preserve">
<g>
	<g>
		<g>
			<path d="M371.004,141.833L241.783,12.621c-8.055-8.055-18.773-12.493-30.165-12.493c-11.401,0-22.11,4.437-30.165,12.493
				L12.501,181.572C4.437,189.628,0,200.337,0,211.738s4.437,22.11,12.501,30.174l90.103,90.112
				c-0.119,5.734-0.205,11.605-0.205,17.715c0,36.011,0,85.333,34.133,85.333c28.006,0,34.133-21.751,34.133-30.131
				c0-4.668-3.746-8.405-8.414-8.474c-4.446-0.213-8.516,3.686-8.653,8.354c-0.077,3.098-1.57,13.184-17.067,13.184
				c-17.067,0-17.067-41.088-17.067-68.267c0-157.884,44.331-179.157,45.594-179.721c4.326-1.57,6.639-6.315,5.171-10.718
				c-1.493-4.463-6.315-6.903-10.795-5.393c-2.236,0.742-11.093,4.454-21.188,18.321c-1.067-3.106-1.715-6.545-1.715-10.223
				c0-14.123,11.486-25.6,25.6-25.6c14.123,0,25.6,11.477,25.6,25.6c0,11.733-7.927,21.939-19.285,24.815
				c-4.565,1.161-7.33,5.803-6.17,10.368c0.973,3.866,4.446,6.434,8.26,6.434c0.691,0,1.399-0.085,2.099-0.265
				c18.944-4.796,32.162-21.803,32.162-41.353c0-23.526-19.14-42.667-42.667-42.667c-23.518,0-42.667,19.14-42.667,42.667
				c0,10.385,3.2,19.883,8.747,27.196c-11.016,22.656-21.419,59.605-24.713,119.578l-78.933-78.942
				c-4.838-4.83-7.501-11.255-7.501-18.099c0-6.835,2.662-13.261,7.501-18.099L193.519,24.687c9.668-9.677,26.53-9.668,36.198,0
				l129.22,129.212c9.975,9.984,9.975,26.223,0,36.207L189.986,359.057c-9.668,9.66-26.539,9.668-36.207,0l-4.412-4.42
				c-3.337-3.328-8.738-3.328-12.066,0c-3.337,3.336-3.337,8.738,0,12.075l4.412,4.412c8.055,8.055,18.773,12.493,30.165,12.493
				c11.401,0,22.11-4.437,30.174-12.493l168.951-168.951C387.635,185.54,387.635,158.464,371.004,141.833z"/>
			<path d="M309.7,304.572l153.6,153.6c1.673,1.664,3.857,2.5,6.033,2.5c2.185,0,4.369-0.836,6.033-2.5
				c3.336-3.337,3.336-8.738,0-12.066l-153.6-153.6c-3.328-3.337-8.73-3.337-12.066,0
				C306.372,295.834,306.372,301.235,309.7,304.572z"/>
			<path d="M509.5,411.972l-153.6-153.6c-3.328-3.336-8.73-3.336-12.066,0c-3.328,3.328-3.328,8.73,0,12.066l151.1,151.1v73.267
				h-68.267v-25.6c0-4.71-3.814-8.533-8.533-8.533h-25.6v-25.6c0-4.71-3.814-8.533-8.533-8.533h-25.6v-25.6
				c0-4.71-3.814-8.533-8.533-8.533h-30.592l-48.708-48.7c-3.328-3.337-8.73-3.337-12.066,0c-3.328,3.328-3.328,8.73,0,12.066
				l51.2,51.2c1.604,1.596,3.772,2.5,6.033,2.5h25.6v25.6c0,4.71,3.823,8.533,8.533,8.533h25.6v25.6c0,4.71,3.823,8.533,8.533,8.533
				h25.6v25.6c0,4.71,3.823,8.533,8.533,8.533h85.333c4.719,0,8.533-3.823,8.533-8.533v-85.333
				C512,415.744,511.104,413.568,509.5,411.972z"/>
		</g>
	</g>
</g>
<g>
</g>
<g>
</g>
<g>
</g>
<g>
</g>
<g>
</g>
<g>
</g>
<g>
</g>
<g>
</g>
<g>
</g>
<g>
</g>
<g>
</g>
<g>
</g>
<g>
</g>
<g>
</g>
<g>
</g>
</svg>
